<svg xmlns="http://www.w3.org/2000/svg" fill="none" viewBox="0 0 301 61" data-component="logo" data-variant="withPayoff" className="aspect-[301/61] my-[0rem] w-full max-w-[15rem] max-h-[5rem] text-foreground"><path fill="currentColor" d="M133.8 49.2v-2h-2v-3.8H128v3.9h-2v2h2V57c0 1 .4 2 1.2 2.7.7.8 1.7 1.2 2.7 1.2h2v-2h-.2c-.3 0-.7-.1-1.1-.5-.4-.3-.7-.8-.7-1.4v-7.9h2Zm7.8-5.8h-3.9v2h4v-2ZM101 49.8l.4-.2v-2.3h-.9c-1 0-2 .4-2.7 1.1-.8.8-1.2 1.7-1.2 2.8v5.9c0 1 .4 2 1.2 2.7.7.8 1.6 1.2 2.7 1.2h.9v-2.3l-.3-.2a2 2 0 0 1-.6-1.4v-5.9c0-.5.2-1 .6-1.4Zm-31.8 1.4h2c.1-1.3.8-2 2-2h.5v-2H73c-2.3 0-3.6 1.4-3.9 4m1.3 3.1c-.8.8-1.2 1.7-1.2 2.8a4 4 0 0 0 3.9 3.9h.6v-2.5a2 2 0 0 1-.6-1.4c0-.6.2-1 .6-1.4v-2.5H73c-1 0-2 .3-2.7 1.1M55 51.7l-8.4-8.3h-.9V61h2V50.3l6.8 6.8 6.9-7V61h4V43.4h-2L55 51.7Zm52.2 8.1c.8-.7 1.2-1.7 1.2-2.7v-5.9c0-1-.4-2-1.2-2.8a3.8 3.8 0 0 0-2.8-1.1h-1v2.2a1.9 1.9 0 0 1 1 1.7v5.9a1.9 1.9 0 0 1-1 1.7V61h1c1.1 0 2-.4 2.8-1.2m39.5-11.4c-.8.8-1.1 1.7-1.1 2.8v5.9c0 1 .3 2 1.1 2.7.8.8 1.7 1.2 2.8 1.2h2c2.4 0 3.7-1.3 3.9-4h-2c-.2 1.4-.8 2-2 2-.5 0-1-.2-1.4-.5-.3-.4-.5-.9-.5-1.4v-5.9c0-.5.2-1 .5-1.4a2 2 0 0 1 1.4-.6c1.2 0 1.8.7 2 2h2c-.2-2.6-1.5-4-4-4h-2c-1 0-2 .5-2.7 1.2M77 47.3h-1.3v2l.8.5c.4.4.6.9.6 1.4v2h-1.4v2H77V57a1.9 1.9 0 0 1-1.4 1.8v2c.8-.2 1.2-.8 1.4-1.9v2h4v-9.8c0-1-.4-2-1.2-2.8a3.8 3.8 0 0 0-2.8-1.1Zm17.7 3.9v-4h-2c-1.2 0-2 .4-2.7 1-.7.7-1 1.7-1.2 3v-4h-4V61h4v-7.9c0-.5.2-1 .5-1.3a2 2 0 0 1 1.4-.6h4Zm21.5-3.9c-1 0-2 .4-2.8 1.1-.7.8-1.1 1.7-1.1 2.8 0 .6 0 1.2.3 1.8.3.5 1.1 1.2 2.7 2 1.9 1 2.9 1.9 2.9 2.4 0 .6-.2 1-.6 1.2-.3.3-.8.4-1.5.4-1.1 0-1.7-.6-1.9-1.9h-2c0 2.6 1.4 4 4 4h2c1 0 2-.5 2.7-1.2.8-.8 1.2-1.7 1.2-2.8 0-.7-.1-1.2-.4-1.8-.2-.5-1.1-1.2-2.7-2-1.9-1-2.8-1.9-2.8-2.4 0-.6.2-1 .5-1.3.4-.2.9-.4 1.6-.4 1 0 1.6.7 1.8 2h2c-.2-2.6-1.5-4-4-4h-2Zm123.3-3.9h-3.9v2h4v-2Zm0 3.9h-3.9V61h4V47.3Zm5.1 7c-.8.8-1.2 1.7-1.2 2.8 0 1 .4 2 1.2 2.8.8.7 1.7 1.1 2.8 1.1h.7v-2.4l-.2-.1a2 2 0 0 1-.6-1.4c0-.6.2-1 .6-1.4l.2-.1v-2.4h-.8c-1 0-2 .3-2.7 1.1m6.7-7H250v2l.6.5c.4.4.6.9.6 1.4v2H250v2h1.2V57c0 .5-.2 1-.6 1.4a2 2 0 0 1-.6.4v2c.7-.3 1-.9 1.2-1.9v2h3.9v-9.8c0-1-.4-2-1.2-2.8a3.7 3.7 0 0 0-2.7-1.1m-88 2h1v-2h-1c-2.3 0-3.6 1.4-4 4h2c.2-1.3.8-2 2-2m68.5-5.8h-4V61h4V43.4Zm11.7 7.8h2c.1-1.3.8-2 2-2h.7v-2h-.8c-2.3 0-3.6 1.4-3.9 4M167.1 61h4v-9.8c0-1-.5-2-1.3-2.8a3.7 3.7 0 0 0-2.7-1.1h-1v2.3l.4.2c.4.4.6.9.6 1.4v2h-1v2h1V57c0 .5-.2 1-.6 1.4l-.3.2v2c.5-.3.8-.8 1-1.7v2h-.1Zm-3.9 0h1v-2.2l-.5-.3c-.3-.4-.5-.9-.5-1.4 0-.6.2-1 .5-1.4l.5-.3v-2.2h-1c-1 0-2 .3-2.8 1.1-.8.8-1.1 1.7-1.1 2.8 0 1 .3 2 1.1 2.7.8.8 1.7 1.2 2.8 1.2Zm31.3-17.6h-4V61h4V43.4Zm25.5 3.9V61h3.9v-9.8c0-1-.4-2-1.2-2.8a3.7 3.7 0 0 0-2.8-1.1m-6.6 7c-.8.8-1.2 1.7-1.2 2.8A4 4 0 0 0 216 61h2v-2c-.6 0-1-.1-1.4-.5a2 2 0 0 1-.6-1.4c0-.6.2-1 .6-1.4.4-.4.8-.6 1.4-.6v-2h-2c-1 0-2 .4-2.7 1.2m-1.2-3.1h2c.1-1.3.8-2 2-2h1.9v-2h-2c-2.3 0-3.6 1.4-3.9 4m-9.8 5.8c0 1.1.4 2 1.2 2.8.7.8 1.6 1.2 2.7 1.2h2v-2h-.2c-.4 0-.7-.1-1.2-.5-.4-.3-.6-.8-.6-1.4v-7.9h2v-2h-2v-3.8h-3.9v3.9h-2v2h2V57Zm-60.7-9.7h-3.9V61h4V47.3Zm-7.5-18.9h-4c0 2.7-1.4 4.1-4.1 4.1h-2.8v4.1h2.8c4.8 0 7.5-2.7 8.1-8.2M282.7 11c-1.3-2-3.4-2.9-6.1-2.9h-2.1v4.7l.9.6a4 4 0 0 1 1.2 2.9v20.3h8V16.3c0-1.1.5-2.1 1.3-2.9l.6-.4V8.4a6 6 0 0 0-3.9 2.6M0 36.6h9.6v-4.1H8V4.1h1.5V0H0v36.6Zm298.6-26.1a7.9 7.9 0 0 0-5.8-2.4h-2.3v4.5a4 4 0 0 1 2.4 3.7v20.3h8.1V16.3c0-2.3-.8-4.2-2.4-5.8Zm-164.5 5.8c0-2.3-.8-4.2-2.4-5.8a7.7 7.7 0 0 0-5.7-2.4h-2.8v4.3a4 4 0 0 1 2.8 3.9v4h-2.8v4.1h11v-8.1ZM150.4 0h-8v36.6h8V0ZM183 20.3h8.2v-4.1H183V4.1h12.2V0h-20.3v36.6h8V20.3Zm28.5-8.1h2V8.1h-2c-4.8 0-7.5 2.7-8.1 8.2h4c.4-2.7 1.7-4.1 4-4.1Zm-93.6 24.4h1.4v-5.2l-.2-.1a4 4 0 0 1-1.2-2.8v-4.1h1.4v-4.1h-1.4v-4a4 4 0 0 1 1.2-2.9l.2-.1V8.1h-1.4c-2.2 0-4.1.8-5.7 2.4a7.9 7.9 0 0 0-2.4 5.8v12.2c0 2.2.8 4.1 2.4 5.7a7.8 7.8 0 0 0 5.7 2.4ZM40.6 0h-8v4.1h8V0Zm172.9 31.9-.8-.6a3.9 3.9 0 0 1-1.2-2.8c0-1.2.4-2.1 1.2-3l.8-.5v-4.7h-2c-2.2 0-4.1.8-5.7 2.4a7.8 7.8 0 0 0-2.4 5.7c0 2.3.8 4.2 2.3 5.8a7.7 7.7 0 0 0 5.7 2.4h2v-4.8Zm54.9-19.7V8.1h-8.1v28.5h8V16.3c0-1.1.5-2.1 1.3-2.9.3-.3.6-.4 1-.6V8.6l-1 .5a5 5 0 0 0-1.2 3M73.1 16.3a8 8 0 0 0-2.4-5.8A7.8 7.8 0 0 0 65 8.1h-1.5v5c0 .2.2.2.3.3a4 4 0 0 1 1.2 2.9v4h-1.5v4.1H73v-8.1Zm173.4-6.2a10 10 0 0 0-2.5 6.1V8.1h-8.1v28.5h8.1V20.3c0-1.2.4-2.1 1.2-3a4 4 0 0 1 2.9-1.1h8.1V8h-4c-2.5 0-4.3.7-5.7 2m-26.9-1.9h-2.2v4.6l1 .7a4 4 0 0 1 1.2 2.9v4h-2.2v4.1h2.2v4c0 1.2-.4 2.1-1.2 2.9a4 4 0 0 1-1 .7v4.2c1.2-.6 2-1.8 2.2-3.7v4.1h8V16.3c0-2.3-.7-4.2-2.3-5.8a7.7 7.7 0 0 0-5.7-2.4M73.1 28.4h-4c0 2.7-1.4 4.1-4.1 4.1h-1.5v4.1H65c4.8 0 7.5-2.7 8.1-8.2Zm20.5 8.2c2.2 0 4.1-.8 5.7-2.4a7.9 7.9 0 0 0 2.4-5.8 9 9 0 0 0-.7-3.6c-.5-1.1-2.4-2.6-5.6-4.3-4-2.1-6-3.8-6-5 0-1 .4-1.9 1.1-2.5.7-.5 1.8-.8 3.3-.8 2.2 0 3.5 1.4 3.8 4.1h4.1c-.3-5.5-3-8.2-8.1-8.2h-4.1c-2.2 0-4.1.8-5.8 2.4a7.9 7.9 0 0 0-2.4 5.8 9 9 0 0 0 .8 3.6c.5 1.1 2.3 2.6 5.6 4.3 4 2.1 6 3.7 6 4.9 0 1.1-.4 2-1.2 2.5-.7.6-1.8.9-3.2.9-2.3 0-3.5-1.4-3.9-4.1h-4c0 5.5 2.7 8.2 8 8.2h4.2ZM16.2 0h-2.7v4.4c.6.2 1 .4 1.5.9.8.8 1.2 1.7 1.2 2.8v20.4c0 1-.4 2-1.2 2.8-.4.5-1 .7-1.5 1v4.3h2.7c2.2 0 4.1-.8 5.7-2.4a7.8 7.8 0 0 0 2.4-5.7V8a8 8 0 0 0-2.4-5.7A7.8 7.8 0 0 0 16.2 0Zm24.4 8.1h-8v28.5h8V8.1Zm16.3 28.5h2.6v-4.4a4 4 0 0 1-1.4-.9 4 4 0 0 1-1.2-2.8v-4.1h2.6v-4.1H57v-4c0-1.1.4-2.1 1.2-3a4 4 0 0 1 1.4-.8V8H57c-2.2 0-4.1.8-5.7 2.4a7.9 7.9 0 0 0-2.4 5.8v12.2c0 2.2.8 4.1 2.4 5.7a7.8 7.8 0 0 0 5.7 2.4m127.7 16.7H175v2h9.8v-2Z"></path></svg>